<svg width="48" height="48" viewBox="0 0 48 48" fill="none" xmlns="http://www.w3.org/2000/svg">
<path d="M48 24C48 37.2547 37.255 48 24.0003 48C10.7453 48 0 37.2547 0 24C0 10.7453 10.7453 0 24.0003 0C37.255 0 48 10.7453 48 24Z" fill="#F16A22"/>
<path d="M16.3071 22.7736C14.7343 22.7736 13.4596 21.3198 13.4596 19.5266C13.4596 17.733 14.7343 16.2793 16.3071 16.2793C17.8796 16.2793 19.1544 17.733 19.1544 19.5266C19.1544 21.3198 17.8796 22.7736 16.3071 22.7736Z" fill="white"/>
<path d="M31.6932 22.7736C30.1207 22.7736 28.8459 21.3198 28.8459 19.5266C28.8459 17.733 30.1207 16.2793 31.6932 16.2793C33.266 16.2793 34.5407 17.733 34.5407 19.5266C34.5407 21.3198 33.266 22.7736 31.6932 22.7736Z" fill="white"/>
<path d="M18.8175 15.2997C18.5973 15.2997 18.3723 15.2343 18.1797 15.1099C17.1026 14.4048 15.8443 14.032 14.5642 14.032C14.3949 14.032 14.2252 14.0386 14.0554 14.0516C14.0269 14.0536 13.9988 14.0548 13.9704 14.0548C13.4965 14.0548 13.0411 13.7692 12.9269 13.3138C12.805 12.8337 13.2465 12.3101 13.9167 12.2587C14.1326 12.2419 14.3488 12.2337 14.5642 12.2337C16.1935 12.2337 17.7938 12.7078 19.1646 13.605C19.7274 13.9729 19.8621 14.6443 19.524 15.0065C19.3394 15.2057 19.082 15.2997 18.8175 15.2997Z" fill="white"/>
<path d="M29.1829 15.2997C28.9184 15.2997 28.661 15.2057 28.4763 15.0065C28.1383 14.6443 28.2732 13.9729 28.8357 13.605C30.2065 12.7078 31.8069 12.2337 33.4362 12.2337C33.6515 12.2337 33.8677 12.2419 34.0836 12.2587C34.7538 12.3101 35.1953 12.8337 35.0734 13.3138C34.9592 13.7692 34.5038 14.0548 34.0299 14.0548C34.0015 14.0548 33.9731 14.0536 33.945 14.0516C33.7751 14.0386 33.6055 14.032 33.4362 14.032C32.156 14.032 30.8977 14.4048 29.8207 15.1099C29.6281 15.2343 29.4031 15.2997 29.1829 15.2997Z" fill="white"/>
<path d="M31.0815 35.7663C30.8485 35.7663 30.6102 35.7104 30.3897 35.5967C28.3768 34.5518 26.1884 34.0293 24 34.0293C21.8118 34.0293 19.6234 34.5518 17.6105 35.5967C17.3901 35.7104 17.1517 35.7663 16.9188 35.7663C16.4716 35.7663 16.0446 35.5604 15.8031 35.1609C15.4366 34.5555 15.7409 33.6634 16.517 33.2611C18.8742 32.0372 21.4371 31.4255 24.0003 31.4255C26.5631 31.4255 29.126 32.0372 31.4832 33.2611C32.2594 33.6634 32.5639 34.5558 32.1971 35.1609C31.9557 35.5604 31.5287 35.7663 31.0815 35.7663Z" fill="white"/>
</svg>
