<svg width="33" height="32" viewBox="0 0 33 32" fill="none" xmlns="http://www.w3.org/2000/svg">
<g id="dissatisfied">
<path id="path42" d="M16.5002 31C24.7844 31 31.5 24.2842 31.5 16C31.5 7.71578 24.7844 1 16.5002 1C8.21579 1 1.5 7.71581 1.5 16C1.5 24.2842 8.21579 31 16.5002 31Z" fill="#F16A22" stroke="#F16A22" stroke-width="2"/>
<path id="path44" d="M11.3714 15.1824C10.3229 15.1824 9.47302 14.2132 9.47302 13.0177C9.47302 11.822 10.3229 10.8529 11.3714 10.8529C12.4197 10.8529 13.2696 11.822 13.2696 13.0177C13.2696 14.2132 12.4197 15.1824 11.3714 15.1824Z" fill="white"/>
<path id="path46" d="M21.6288 15.1824C20.5805 15.1824 19.7307 14.2132 19.7307 13.0177C19.7307 11.822 20.5805 10.8529 21.6288 10.8529C22.6773 10.8529 23.5272 11.822 23.5272 13.0177C23.5272 14.2132 22.6773 15.1824 21.6288 15.1824Z" fill="white"/>
<path id="path48" d="M13.045 10.1997C12.8982 10.1997 12.7482 10.1562 12.6198 10.0732C11.9018 9.6031 11.0629 9.35461 10.2095 9.35461C10.0966 9.35461 9.9835 9.35896 9.87024 9.36768C9.8513 9.369 9.83255 9.36976 9.81361 9.36976C9.49769 9.36976 9.19408 9.17941 9.11794 8.8758C9.03669 8.55571 9.33102 8.20665 9.77781 8.17237C9.92176 8.1612 10.0659 8.1557 10.2095 8.1557C11.2957 8.1557 12.3626 8.47181 13.2764 9.06993C13.6516 9.31521 13.7414 9.76276 13.516 10.0042C13.3929 10.137 13.2213 10.1997 13.045 10.1997Z" fill="white"/>
<path id="path50" d="M19.9553 10.1997C19.7789 10.1997 19.6073 10.137 19.4842 10.0042C19.2588 9.76276 19.3488 9.31521 19.7238 9.06993C20.6377 8.47181 21.7046 8.1557 22.7908 8.1557C22.9344 8.1557 23.0785 8.1612 23.2224 8.17237C23.6692 8.20665 23.9636 8.55571 23.8823 8.8758C23.8062 9.17941 23.5026 9.36976 23.1866 9.36976C23.1677 9.36976 23.1488 9.369 23.13 9.36768C23.0168 9.35896 22.9037 9.35461 22.7908 9.35461C21.9374 9.35461 21.0985 9.6031 20.3805 10.0732C20.2521 10.1562 20.1021 10.1997 19.9553 10.1997Z" fill="white"/>
<path id="path52" d="M21.221 23.8442C21.0657 23.8442 20.9068 23.8069 20.7598 23.7312C19.4179 23.0345 17.9589 22.6862 16.5 22.6862C15.0412 22.6862 13.5822 23.0345 12.2403 23.7312C12.0934 23.8069 11.9345 23.8442 11.7792 23.8442C11.481 23.8442 11.1964 23.7069 11.0354 23.4406C10.791 23.037 10.9939 22.4423 11.5113 22.1741C13.0828 21.3582 14.7914 20.9504 16.5002 20.9504C18.2087 20.9504 19.9173 21.3582 21.4888 22.1741C22.0062 22.4423 22.2093 23.0372 21.9647 23.4406C21.8038 23.7069 21.5191 23.8442 21.221 23.8442Z" fill="white"/>
</g>
</svg>
