<svg width="204" height="204" viewBox="0 0 204 204" fill="none" xmlns="http://www.w3.org/2000/svg">
<circle cx="102" cy="102" r="102" fill="white"/>
<path d="M46.329 140.092C37.6782 130.614 30.6074 118.569 31.91 106.072C33.1459 94.2121 42.6977 86.1261 52.7428 81.0633C63.2461 75.7693 74.8616 72.8036 85.5785 67.8983C96.822 62.7523 107.643 56.6772 117.859 49.7086C122.492 46.5478 127.021 43.192 132.017 40.643C141.023 36.0465 153.098 34.9218 161.244 41.9042C169.751 49.1948 172.924 61.8194 170.406 72.5429C167.528 84.794 159.843 95.6307 159.017 108.415C158.517 116.165 160.812 123.941 159.892 131.642C158.992 139.183 156.732 146.622 152.798 153.148C148.308 160.597 141.566 166.798 133.472 169.979C122.297 174.372 109.674 172.764 98.0613 169.712C82.5338 165.632 67.3974 158.907 55.0663 148.477C52.1429 146.005 49.152 143.185 46.329 140.092Z" fill="#ECECEC"/>
<path d="M147.834 93.6613L143.262 92.4786L133.564 97.2745L132.768 100.139C132.768 100.139 136.591 106.631 136.869 106.692C137.147 106.753 145.832 106.526 146.65 106.121C147.468 105.717 150.633 99.5266 150.601 99.1398C150.569 98.753 147.834 93.6613 147.834 93.6613Z" fill="#9B6643"/>
<path d="M143.907 93.4724C143.907 93.4724 137.466 94.5114 133.202 100.258L127.34 98.6527L125.743 94.7189L129.601 90.7051L138.063 88.5624L145.776 92.8021L143.907 93.4724Z" fill="#B47952"/>
<path d="M117.479 95.3982L113.85 105.378C113.85 105.378 121.005 107.964 122.583 100.635L117.479 95.3982Z" fill="#DF9A6D"/>
<path d="M113.85 105.378C113.85 105.378 114.652 105.666 115.777 105.777L118.165 96.1613L117.292 95.9111L113.85 105.378Z" fill="#EDA16F"/>
<path d="M120.345 90.236L135.044 85.725L137.208 89.7669C137.208 89.7669 133.25 90.1993 127.816 94.7583L124.836 95.5123L120.345 90.236Z" fill="#BE825A"/>
<path d="M129.325 80.2713L103.457 88.6947C103.457 88.6947 104.868 95.6827 113.438 93.1794C113.438 93.1794 127.96 88.8992 132.989 88.5134L129.325 80.2713Z" fill="#EDA16F"/>
<path d="M130.566 82.9639L129.325 80.2713L103.457 88.6946C103.457 88.6946 103.679 89.7878 104.476 90.9543C106.88 90.0176 119.552 85.1837 130.566 82.9639Z" fill="#FABC92"/>
<path d="M122.827 90.6023C121.852 89.8611 121.068 89.2531 120.58 88.8544C120.559 88.8373 120.538 88.8202 120.517 88.8031C123.717 88.3649 126.847 88.0533 129.277 88.0533C130.879 88.0533 132.178 88.1889 132.989 88.5133C130.766 88.6837 126.687 89.6156 122.827 90.6023Z" fill="#E09A6A"/>
<path d="M122.952 101.605L119.839 109.537C119.839 109.537 126.601 113.014 127.985 106.014L122.952 101.605Z" fill="#D59467"/>
<path d="M129.503 107.028L127.008 114.282C127.008 114.282 132.626 117.714 133.61 111.218L129.503 107.028Z" fill="#CC8D63"/>
<path d="M120.959 109.984L123.301 101.91L122.952 101.605L119.839 109.537C119.839 109.537 120.281 109.763 120.959 109.984Z" fill="#DF9A6D"/>
<path d="M127.837 114.69L129.711 108.077L129.299 107.623L127.008 114.282C127.008 114.282 127.333 114.479 127.837 114.69Z" fill="#D59467"/>
<path d="M104.677 89.5471C104.628 89.559 104.578 89.5309 104.564 89.4824C104.55 89.4329 104.578 89.3811 104.628 89.3663L107.589 88.5071C108.147 88.3454 108.476 87.7774 108.339 87.2136C108.327 87.1641 108.358 87.1137 108.407 87.1009H108.408C108.458 87.0885 108.509 87.1194 108.521 87.1698C108.682 87.8306 108.295 88.4971 107.642 88.687L104.68 89.5461L104.677 89.5471Z" fill="white"/>
<path d="M136.175 120.722L136.171 120.722C136.145 120.727 136.121 120.71 136.117 120.684C135.677 118.01 132.422 112.69 132.389 112.636C130.161 108.494 116.703 96.2445 116.567 96.1213C116.548 96.1037 116.546 96.0742 116.564 96.0552C116.581 96.0357 116.61 96.0343 116.63 96.0519C116.765 96.1756 130.236 108.436 132.471 112.59C132.502 112.641 135.766 117.977 136.21 120.669C136.213 120.693 136.198 120.716 136.175 120.722Z" fill="white"/>
<path d="M113.642 114.497H74.1666C70.7585 114.497 67.9692 111.708 67.9692 108.3V68.8247C67.9692 65.4165 70.7585 62.6278 74.1666 62.6278H113.642C117.05 62.6278 119.839 65.4165 119.839 68.8247V108.3C119.839 111.708 117.05 114.497 113.642 114.497Z" fill="#0DAF4E"/>
<path d="M84.4667 114.497H74.1666C70.7585 114.497 67.9692 111.708 67.9692 108.3V78.2761C68.023 78.2737 68.0748 78.2628 68.1291 78.2628C68.1296 78.2628 68.1305 78.2628 68.131 78.2628C68.1553 78.2633 68.1795 78.2633 68.2038 78.2633C70.5686 78.2633 72.8574 77.7209 74.6866 76.1429C75.57 75.3808 76.3031 74.4327 77.2993 73.8256C78.04 73.3741 78.9078 73.1363 79.7746 73.1363C80.0443 73.1363 80.3141 73.1596 80.58 73.2062C81.5381 73.3746 82.4534 73.8389 83.4211 73.8389C83.4629 73.8389 83.5053 73.838 83.5476 73.8361C84.4967 73.7952 85.4077 73.24 85.8792 72.4151C86.4891 71.347 86.3426 70.0316 86.3216 68.8019C86.2507 64.7148 90.4301 63.0455 93.9072 62.6777C93.9971 62.6682 94.0842 62.644 94.1731 62.6278H113.642C113.752 62.6278 113.86 62.6306 113.969 62.6363C116.385 62.7638 118.447 64.2919 119.35 66.4184C119.664 67.1592 119.839 67.9727 119.839 68.8247V79.9626C119.692 79.983 119.544 79.9959 119.394 79.9959C119.316 79.9959 119.238 79.9925 119.16 79.9849C118.747 79.9459 118.303 79.9245 117.839 79.9245C114.402 79.9245 109.864 81.0825 108.83 84.5872C108.597 85.376 108.692 86.218 108.733 87.0401C108.866 89.6685 108.419 92.3245 107.433 94.7651C105.893 98.5804 103.408 99.3521 99.7454 100.426C96.4353 101.396 93.5171 103.579 91.5661 106.413C90.6189 107.79 90.1608 109.412 89.098 110.677C87.8368 112.178 86.5286 113.559 84.7051 114.378C84.6237 114.415 84.5448 114.455 84.4667 114.497Z" fill="#0CC456"/>
<path d="M90.0128 81.3193C90.0128 82.8616 88.7621 84.1118 87.2198 84.1118C85.6775 84.1118 84.4272 82.8616 84.4272 81.3193C84.4272 79.7769 85.6775 78.5262 87.2198 78.5262C88.7621 78.5262 90.0128 79.7769 90.0128 81.3193Z" fill="#0DAF4E"/>
<path d="M103.532 81.3193C103.532 82.8616 102.281 84.1118 100.739 84.1118C99.1965 84.1118 97.9463 82.8616 97.9463 81.3193C97.9463 79.7769 99.1965 78.5262 100.739 78.5262C102.281 78.5262 103.532 79.7769 103.532 81.3193Z" fill="#0DAF4E"/>
<path d="M93.9797 99.0752C89.8979 99.0752 86.0549 97.275 83.436 94.1371C82.9793 93.59 83.0526 92.7755 83.6001 92.3193C84.1477 91.8621 84.9612 91.9354 85.4184 92.4829C87.5459 95.0314 90.6662 96.4929 93.9797 96.4929C97.2937 96.4929 100.414 95.0314 102.54 92.4829C102.998 91.9349 103.811 91.8621 104.359 92.3183C104.906 92.7755 104.98 93.59 104.523 94.1371C101.904 97.275 98.061 99.0752 93.9797 99.0752Z" fill="#0DAF4E"/>
<path d="M89.8627 80.8422C89.8627 82.3845 88.6125 83.6348 87.0697 83.6348C85.5273 83.6348 84.2771 82.3845 84.2771 80.8422C84.2771 79.2999 85.5273 78.0496 87.0697 78.0496C88.6125 78.0496 89.8627 79.2999 89.8627 80.8422Z" fill="white"/>
<path d="M103.381 80.8422C103.381 82.3845 102.131 83.6348 100.588 83.6348C99.0461 83.6348 97.7959 82.3845 97.7959 80.8422C97.7959 79.2999 99.0461 78.0496 100.588 78.0496C102.131 78.0496 103.381 79.2999 103.381 80.8422Z" fill="white"/>
<path d="M93.8293 98.5979C89.7475 98.5979 85.905 96.7982 83.2856 93.6603C82.8289 93.1127 82.9022 92.2982 83.4498 91.842C83.9973 91.3848 84.8113 91.4581 85.2685 92.0057C87.3955 94.5542 90.5158 96.0156 93.8293 96.0156C97.1433 96.0156 100.264 94.5542 102.39 92.0057C102.847 91.4576 103.661 91.3848 104.208 91.8415C104.756 92.2982 104.829 93.1127 104.373 93.6603C101.754 96.7982 97.9106 98.5979 93.8293 98.5979Z" fill="white"/>
<path d="M109.665 89.8506L119.839 108.3L119.831 97.2625L109.665 89.8506Z" fill="#0DAF4E"/>
<path d="M109.665 89.8507C109.665 89.8507 113.965 85.4977 118.962 87.8036C119.549 88.0748 120.08 88.4454 120.581 88.8545C122.832 90.6942 131.388 96.9872 135.977 100.312C135.977 100.312 140.103 102.652 143.151 99.7635C143.151 99.7635 145.598 97.6128 143.832 94.6465C143.832 94.6465 142.272 91.6846 132.989 88.5134L129.325 80.2713L133.668 78.9307C136.23 78.14 138.933 77.9102 141.586 78.2965C144.268 78.6866 147.507 79.777 150.68 81.6681C153.351 83.2594 158.515 86.6518 161.065 88.7465C164.766 91.7869 167.763 95.5861 168.686 100.286C169.122 102.507 169.462 105.101 169.529 107.954L171.776 136.043L149.432 141.701C149.432 141.701 140.342 137.034 136.554 122.074C135.38 117.438 133.114 113.131 130.133 109.391C129.929 109.136 129.719 108.879 129.503 108.622C129.503 108.622 117.97 96.9501 109.665 89.8507Z" fill="#EDA16F"/>
<path d="M168.686 100.286C167.763 95.5861 164.766 91.7868 161.065 88.7464C158.515 86.6518 153.351 83.2593 150.68 81.668C147.507 79.7769 144.268 78.6866 141.586 78.2964C138.933 77.9102 136.23 78.1399 133.668 78.9306L129.325 80.2717L130.566 82.9639C135.91 81.8868 140.864 81.4249 144.061 82.325C144.061 82.325 150.551 84.2236 160.207 91.5804C165.582 95.675 168.686 104.324 169.775 112.054C169.897 112.918 169.998 113.823 170.074 114.771L169.529 107.954C169.462 105.101 169.122 102.507 168.686 100.286Z" fill="#FABC92"/>
<path d="M149.432 141.701C149.432 141.701 140.342 137.034 136.554 122.074C136.439 121.619 136.313 121.168 136.178 120.721C136.173 120.704 136.168 120.688 136.163 120.671C134.912 116.568 132.811 112.751 130.133 109.391C130.058 109.298 129.983 109.204 129.906 109.11C129.787 108.963 129.666 108.816 129.543 108.67C129.53 108.654 129.516 108.638 129.503 108.622C129.503 108.622 129.361 108.479 129.096 108.212C127.17 106.276 118.771 97.8834 111.711 91.6328C111.72 91.6233 112.404 90.8635 113.704 90.3707L124.132 100.25C128.745 104.62 133.114 109.24 137.219 114.089C139.779 117.114 142.306 120.107 143.711 121.773C144.666 122.906 149.363 128.573 155.508 128.573C156.071 128.572 156.646 128.525 157.231 128.422C165.679 126.937 170.272 117.245 170.272 117.245L171.776 136.043L158.452 139.417L149.432 141.701ZM110.058 90.1875C109.926 90.0743 109.795 89.962 109.665 89.8507C109.665 89.8502 109.665 89.8502 109.665 89.8502H109.666C109.665 89.8502 109.665 89.8507 109.665 89.8507C109.795 89.9615 109.926 90.0743 110.058 90.1875Z" fill="#EA9965"/>
<path d="M177.316 137.233L142.433 146.066L141.713 143.223C141.429 142.102 142.108 140.962 143.23 140.678L174.051 132.874C175.173 132.59 176.312 133.27 176.596 134.391L177.316 137.233Z" fill="#575369"/>
<path d="M139.48 101.206C137.555 101.206 135.977 100.312 135.977 100.312C135.977 100.312 137.552 101.203 139.475 101.202C140.446 101.202 141.506 100.975 142.497 100.291L142.499 100.293C142.498 100.294 142.497 100.295 142.497 100.297C141.508 100.979 140.45 101.206 139.48 101.206Z" fill="#D4986E"/>
<path d="M134.209 99.0271C132.356 97.6765 130.175 96.0776 128.087 94.5333V94.5328C130.175 96.0776 132.356 97.6765 134.209 99.0271Z" fill="#DFA074"/>
<path d="M128.087 94.5333C126.14 93.0933 124.273 91.7008 122.828 90.6023C124.273 91.7008 126.14 93.0933 128.087 94.5329V94.5333Z" fill="#E3A478"/>
<path d="M122.827 90.6023C121.852 89.8611 121.068 89.2531 120.581 88.8544C120.559 88.8373 120.538 88.8202 120.517 88.8031C120.538 88.8202 120.559 88.8373 120.58 88.8544C121.068 89.2531 121.852 89.8611 122.827 90.6023Z" fill="#F2AD80"/>
<path d="M109.666 89.8497V89.8493C109.666 89.8497 109.666 89.8497 109.666 89.8497ZM109.666 89.8493C109.733 89.7827 112.398 87.13 115.947 87.13C116.342 87.13 116.749 87.1628 117.163 87.2356C116.748 87.1628 116.342 87.13 115.947 87.13C112.399 87.13 109.734 89.7812 109.666 89.8493ZM118.962 87.8036C118.476 87.5795 117.996 87.4178 117.526 87.3093C117.996 87.4178 118.476 87.5791 118.962 87.8036Z" fill="#F6876E"/>
<path d="M111.711 91.6328L111.7 91.6238C111.143 91.1314 110.594 90.6504 110.057 90.1875C110.598 90.6528 111.15 91.1361 111.711 91.6328Z" fill="#EB7465"/>
<path d="M138.241 101.901C138.127 101.901 138.015 101.899 137.904 101.895C136.553 101.855 135.243 101.464 134.061 100.809C129.449 98.2502 122.703 92.7284 122.703 92.7284C119.994 90.6104 117.745 89.9586 116.001 89.9586C115.097 89.9586 114.329 90.1337 113.704 90.3706L111.619 88.3954C110.419 89.0957 109.686 89.8297 109.666 89.8502C109.666 89.8502 109.666 89.8497 109.666 89.8497C109.666 89.8497 109.666 89.8497 109.666 89.8492C109.666 89.8492 109.666 89.8492 109.666 89.8492C109.734 89.7812 112.399 87.1299 115.947 87.1299C116.342 87.1299 116.748 87.1627 117.163 87.2355C117.283 87.2569 117.404 87.2812 117.526 87.3093C117.996 87.4177 118.476 87.5795 118.962 87.8036C119.269 87.9453 119.559 88.1137 119.839 88.3007C120.072 88.4572 120.298 88.6261 120.517 88.8031C120.538 88.8202 120.559 88.8373 120.581 88.8545C121.068 89.2531 121.852 89.8611 122.828 90.6023C124.273 91.7008 126.14 93.0933 128.087 94.5333C130.175 96.0775 132.356 97.6765 134.209 99.0271C134.842 99.4885 135.437 99.9205 135.977 100.312C135.977 100.312 137.555 101.206 139.48 101.206C140.45 101.206 141.508 100.979 142.496 100.297C141.54 101.591 139.742 101.901 138.241 101.901Z" fill="#F6B182"/>
<path d="M111.711 91.6328C111.15 91.1361 110.598 90.6528 110.058 90.1875C109.926 90.0743 109.795 89.9616 109.665 89.8507C109.665 89.8507 109.665 89.8502 109.666 89.8502C109.685 89.8298 110.419 89.0957 111.619 88.3954L113.704 90.3707C112.404 90.8635 111.72 91.6233 111.711 91.6328Z" fill="#F5AC7D"/>
<path d="M113.524 92.8226C113.493 92.8302 113.459 92.8221 113.435 92.7973C113.399 92.7602 113.399 92.7013 113.436 92.6651C113.852 92.2598 113.874 91.6033 113.488 91.1703L111.435 88.8697C111.401 88.8312 111.404 88.7722 111.442 88.7374C111.48 88.7041 111.539 88.7065 111.574 88.745L113.627 91.0457C114.08 91.5538 114.054 92.3235 113.567 92.7988C113.555 92.8107 113.54 92.8188 113.524 92.8226Z" fill="white"/>
<path d="M173.414 138.269C173.41 138.271 173.405 138.271 173.401 138.271C173.375 138.269 173.355 138.248 173.356 138.222L173.577 134.017C173.578 133.991 173.6 133.971 173.626 133.973C173.652 133.974 173.672 133.996 173.67 134.022L173.45 138.227C173.449 138.248 173.434 138.265 173.414 138.269Z" fill="white"/>
<path d="M172.206 138.575C172.202 138.577 172.197 138.577 172.192 138.577C172.166 138.575 172.146 138.553 172.148 138.528L172.369 134.323C172.37 134.297 172.392 134.277 172.418 134.278C172.444 134.28 172.464 134.302 172.462 134.327L172.241 138.532C172.24 138.554 172.225 138.571 172.206 138.575Z" fill="white"/>
<path d="M170.998 138.881C170.994 138.883 170.989 138.883 170.984 138.883C170.959 138.881 170.939 138.859 170.94 138.834L171.161 134.629C171.162 134.603 171.185 134.583 171.21 134.584C171.235 134.586 171.255 134.608 171.254 134.633L171.033 138.838C171.032 138.859 171.018 138.877 170.998 138.881Z" fill="white"/>
<path d="M143.758 103.677C143.397 103.769 143.046 103.831 142.712 103.871C140.739 104.105 138.691 103.599 136.946 102.447C132.612 99.5861 123.624 92.3431 123.534 92.2703C123.513 92.2541 123.51 92.2246 123.527 92.2042C123.543 92.1847 123.572 92.1813 123.592 92.1975C123.683 92.2703 132.667 99.5105 136.997 102.369C138.724 103.509 140.75 104.009 142.702 103.777C145.142 103.488 148.485 101.98 150.538 96.4411C150.546 96.4173 150.572 96.4049 150.598 96.4135C150.622 96.4225 150.634 96.4491 150.625 96.4734C148.836 101.302 146.069 103.092 143.758 103.677Z" fill="white"/>
<path d="M64.997 104.151V134.07C64.997 136.653 62.8833 138.767 60.2996 138.767H30.3811C27.7977 138.767 25.6841 136.653 25.6841 134.07V104.151C25.6841 101.568 27.7977 99.4543 30.3811 99.4543H60.2996C62.8833 99.4543 64.997 101.568 64.997 104.151Z" fill="#DC2F43"/>
<path d="M60.2996 138.767H37.5443C37.5424 138.726 37.5343 138.686 37.5343 138.644C37.5428 136.832 37.1361 135.076 35.9273 133.676C35.3497 133.006 34.6314 132.451 34.1713 131.696C33.7227 130.96 33.5524 130.058 33.7018 129.209C33.835 128.451 34.2122 127.729 34.1794 126.96C34.148 126.241 33.727 125.55 33.1019 125.193C32.5776 124.893 31.9749 124.835 31.3616 124.835C31.0281 124.835 30.6918 124.852 30.364 124.858C30.3379 124.858 30.3122 124.859 30.2865 124.859C27.245 124.859 25.9985 121.722 25.7219 119.108C25.7147 119.04 25.6966 118.974 25.6841 118.907V104.151C25.6841 101.568 27.7977 99.4543 30.3811 99.4543H38.8226C38.8464 99.6227 38.8559 99.7945 38.8397 99.9691C38.5895 102.598 39.3131 106.909 42.3278 107.798C42.6275 107.887 42.9372 107.913 43.2507 107.913C43.5618 107.913 43.8763 107.887 44.1865 107.871C44.4153 107.86 44.6441 107.854 44.873 107.854C46.6389 107.854 48.4043 108.195 50.0418 108.856C52.9333 110.024 53.518 111.908 54.332 114.684C55.0675 117.193 56.7211 119.404 58.87 120.883C59.9133 121.601 61.1426 121.948 62.1017 122.753C63.2392 123.709 64.2862 124.701 64.9066 126.083C64.9342 126.144 64.9646 126.204 64.997 126.263V134.07C64.997 134.131 64.9956 134.191 64.9932 134.251C64.8976 136.751 62.8224 138.767 60.2996 138.767Z" fill="#F22F46"/>
<rect x="26" y="100" width="39" height="39" rx="19.5" fill="#F22F46"/>
<path d="M42.391 113.621C42.391 114.79 41.4434 115.738 40.2745 115.738C39.1051 115.738 38.1575 114.79 38.1575 113.621C38.1575 112.452 39.1051 111.504 40.2745 111.504C41.4434 111.504 42.391 112.452 42.391 113.621Z" fill="#DC2F43"/>
<path d="M52.6374 113.621C52.6374 114.79 51.6897 115.738 50.5204 115.738C49.3515 115.738 48.4038 114.79 48.4038 113.621C48.4038 112.452 49.3515 111.504 50.5204 111.504C51.6897 111.504 52.6374 112.452 52.6374 113.621Z" fill="#DC2F43"/>
<path d="M45.2835 122.106C48.3772 122.106 51.2896 123.471 53.2744 125.849C53.6207 126.264 53.5651 126.881 53.1502 127.227C52.7354 127.573 52.1184 127.518 51.772 127.103C50.1598 125.171 47.7949 124.064 45.2835 124.064C42.7716 124.064 40.4068 125.171 38.7954 127.103C38.4486 127.518 37.8321 127.573 37.4168 127.228C37.0019 126.881 36.9463 126.264 37.2921 125.849C39.2774 123.471 42.1898 122.106 45.2835 122.106Z" fill="#DC2F43"/>
<path d="M42.2773 113.259C42.2773 114.429 41.3296 115.376 40.1602 115.376C38.9914 115.376 38.0437 114.429 38.0437 113.259C38.0437 112.09 38.9914 111.143 40.1602 111.143C41.3296 111.143 42.2773 112.09 42.2773 113.259Z" fill="white"/>
<path d="M52.5234 113.259C52.5234 114.429 51.5757 115.376 50.4068 115.376C49.2379 115.376 48.2903 114.429 48.2903 113.259C48.2903 112.09 49.2379 111.143 50.4068 111.143C51.5757 111.143 52.5234 112.09 52.5234 113.259Z" fill="white"/>
<path d="M45.3972 121.73C48.4909 121.73 51.4033 123.094 53.3886 125.473C53.7344 125.887 53.6792 126.505 53.2639 126.851C52.8491 127.197 52.2321 127.141 51.8857 126.727C50.2735 124.795 47.9086 123.687 45.3972 123.687C42.8858 123.687 40.5204 124.795 38.9091 126.727C38.5623 127.142 37.9458 127.197 37.5305 126.851C37.1156 126.505 37.06 125.887 37.4063 125.473C39.391 123.094 42.304 121.73 45.3972 121.73Z" fill="white"/>
<path d="M108.062 127.679V158.123C108.062 160.751 105.912 162.902 103.283 162.902H72.8395C70.2106 162.902 68.0598 160.751 68.0598 158.123V127.679C68.0598 125.05 70.2106 122.9 72.8395 122.9H103.283C105.912 122.9 108.062 125.05 108.062 127.679Z" fill="#E7A930"/>
<path d="M72.8395 122.899C70.2106 122.899 68.0598 125.05 68.0598 127.679V142.693C68.0727 142.762 68.0912 142.829 68.0983 142.899C68.3824 145.58 69.6697 148.803 72.8219 148.748C73.7701 148.732 74.7843 148.619 75.6083 149.09C76.2443 149.453 76.6725 150.156 76.7044 150.888C76.7377 151.67 76.3538 152.405 76.2182 153.177C76.0664 154.04 76.2396 154.958 76.6958 155.707C77.1644 156.475 77.8956 157.04 78.4831 157.722C79.7129 159.147 80.1268 160.933 80.1182 162.777C80.1178 162.82 80.1263 162.86 80.1282 162.902H103.283C105.912 162.902 108.062 160.751 108.062 158.123V150.179C108.03 150.119 107.999 150.058 107.971 149.995C107.339 148.589 106.274 147.58 105.117 146.608C104.14 145.787 102.89 145.434 101.828 144.704C99.6419 143.199 97.9588 140.949 97.2104 138.396C96.3822 135.572 95.7875 133.655 92.8451 132.467C90.9626 131.707 88.9141 131.362 86.887 131.465C86.2533 131.496 85.6039 131.57 84.9955 131.39C81.9279 130.485 81.1915 126.099 81.446 123.424C81.4631 123.246 81.4532 123.071 81.4289 122.899H72.8395Z" fill="#FCBF49"/>
<path d="M85.06 137.315C85.06 138.504 84.0957 139.469 82.9058 139.469C81.7165 139.469 80.7522 138.504 80.7522 137.315C80.7522 136.125 81.7165 135.161 82.9058 135.161C84.0957 135.161 85.06 136.125 85.06 137.315Z" fill="#E7A930"/>
<path d="M95.4858 137.315C95.4858 138.504 94.5214 139.469 93.3321 139.469C92.1423 139.469 91.1785 138.504 91.1785 137.315C91.1785 136.125 92.1423 135.161 93.3321 135.161C94.5214 135.161 95.4858 136.125 95.4858 137.315Z" fill="#E7A930"/>
<path d="M84.944 136.947C84.944 138.136 83.9797 139.101 82.7904 139.101C81.6006 139.101 80.6367 138.136 80.6367 136.947C80.6367 135.758 81.6006 134.793 82.7904 134.793C83.9797 134.793 84.944 135.758 84.944 136.947Z" fill="white"/>
<path d="M95.3703 136.947C95.3703 138.136 94.406 139.101 93.2161 139.101C92.0268 139.101 91.0625 138.136 91.0625 136.947C91.0625 135.758 92.0268 134.793 93.2161 134.793C94.406 134.793 95.3703 135.758 95.3703 136.947Z" fill="white"/>
<path d="M94.8744 150.039H81.2479C80.6675 150.039 80.1965 149.568 80.1965 148.988C80.1965 148.407 80.6675 147.936 81.2479 147.936H94.8744C95.4548 147.936 95.9252 148.407 95.9252 148.988C95.9252 149.568 95.4548 150.039 94.8744 150.039Z" fill="#E7A930"/>
<path d="M94.8744 149.721H81.2479C80.6675 149.721 80.1965 149.251 80.1965 148.67C80.1965 148.09 80.6675 147.619 81.2479 147.619H94.8744C95.4548 147.619 95.9252 148.09 95.9252 148.67C95.9252 149.251 95.4548 149.721 94.8744 149.721Z" fill="white"/>
<path d="M64.6463 82.7284C64.6463 79.4535 61.9251 76.8146 58.6206 76.9492C55.7857 77.0648 53.3913 79.3093 53.1088 82.1323C52.8285 84.9316 54.5479 87.3673 57.0069 88.2003C57.2567 88.285 57.4727 88.4477 57.6006 88.6789L58.3409 90.0176C58.5678 90.4277 59.1572 90.4277 59.3842 90.0176L60.1177 88.6913C60.2495 88.4525 60.4731 88.2841 60.7319 88.196C63.0078 87.4187 64.6463 85.2674 64.6463 82.7284Z" fill="#445FF4"/>
<path d="M57.6882 82.8393C57.6882 83.1357 57.448 83.376 57.1511 83.376C56.8547 83.376 56.6145 83.1357 56.6145 82.8393C56.6145 82.543 56.8547 82.3022 57.1511 82.3022C57.448 82.3022 57.6882 82.543 57.6882 82.8393Z" fill="white"/>
<path d="M59.3994 82.8393C59.3994 83.1357 59.1592 83.376 58.8628 83.376C58.5659 83.376 58.3257 83.1357 58.3257 82.8393C58.3257 82.543 58.5659 82.3022 58.8628 82.3022C59.1592 82.3022 59.3994 82.543 59.3994 82.8393Z" fill="white"/>
<path d="M61.1106 82.8393C61.1106 83.1357 60.8704 83.376 60.574 83.376C60.2776 83.376 60.0369 83.1357 60.0369 82.8393C60.0369 82.543 60.2776 82.3022 60.574 82.3022C60.8704 82.3022 61.1106 82.543 61.1106 82.8393Z" fill="white"/>
<path d="M131.527 43.7981C131.527 40.5237 128.806 37.8848 125.502 38.0194C122.667 38.135 120.272 40.3791 119.989 43.2025C119.709 46.0018 121.428 48.4375 123.888 49.2705C124.138 49.3552 124.354 49.5179 124.481 49.7486L125.222 51.0878C125.449 51.4979 126.038 51.4979 126.265 51.0878L126.998 49.7615C127.131 49.5227 127.354 49.3542 127.613 49.2658C129.888 48.4884 131.527 46.3376 131.527 43.7981Z" fill="#87889D"/>
<path d="M124.569 43.9089C124.569 44.2058 124.329 44.446 124.032 44.446C123.736 44.446 123.496 44.2058 123.496 43.9089C123.496 43.6126 123.736 43.3723 124.032 43.3723C124.329 43.3723 124.569 43.6126 124.569 43.9089Z" fill="white"/>
<path d="M126.281 43.9089C126.281 44.2058 126.04 44.446 125.743 44.446C125.447 44.446 125.207 44.2058 125.207 43.9089C125.207 43.6126 125.447 43.3723 125.743 43.3723C126.04 43.3723 126.281 43.6126 126.281 43.9089Z" fill="white"/>
<path d="M127.992 43.9089C127.992 44.2058 127.751 44.446 127.455 44.446C127.158 44.446 126.918 44.2058 126.918 43.9089C126.918 43.6126 127.158 43.3723 127.455 43.3723C127.751 43.3723 127.992 43.6126 127.992 43.9089Z" fill="white"/>
<path d="M131.527 128.683C131.527 125.409 128.806 122.77 125.502 122.905C122.667 123.02 120.272 125.264 119.989 128.087C119.709 130.887 121.428 133.323 123.888 134.156C124.138 134.24 124.354 134.403 124.481 134.634L125.222 135.973C125.449 136.383 126.038 136.383 126.265 135.973L126.998 134.647C127.131 134.407 127.354 134.24 127.613 134.151C129.888 133.374 131.527 131.223 131.527 128.683Z" fill="#C3C2CC"/>
<path d="M124.569 128.794C124.569 129.091 124.329 129.331 124.032 129.331C123.736 129.331 123.496 129.091 123.496 128.794C123.496 128.498 123.736 128.258 124.032 128.258C124.329 128.258 124.569 128.498 124.569 128.794Z" fill="white"/>
<path d="M126.281 128.794C126.281 129.091 126.04 129.331 125.743 129.331C125.447 129.331 125.207 129.091 125.207 128.794C125.207 128.498 125.447 128.258 125.743 128.258C126.04 128.258 126.281 128.498 126.281 128.794Z" fill="white"/>
<path d="M127.992 128.794C127.992 129.091 127.751 129.331 127.455 129.331C127.158 129.331 126.918 129.091 126.918 128.794C126.918 128.498 127.158 128.258 127.455 128.258C127.751 128.258 127.992 128.498 127.992 128.794Z" fill="white"/>
<path d="M64.6463 154.771C64.6463 151.497 61.9251 148.858 58.6206 148.992C55.7857 149.108 53.3913 151.352 53.1088 154.176C52.8285 156.975 54.5479 159.411 57.0069 160.244C57.2567 160.328 57.4727 160.491 57.6006 160.722L58.3409 162.061C58.5678 162.471 59.1572 162.471 59.3842 162.061L60.1177 160.735C60.2495 160.495 60.4731 160.327 60.7319 160.239C63.0078 159.461 64.6463 157.311 64.6463 154.771Z" fill="#F16A22"/>
<path d="M57.6882 154.882C57.6882 155.179 57.448 155.419 57.1511 155.419C56.8547 155.419 56.6145 155.179 56.6145 154.882C56.6145 154.586 56.8547 154.345 57.1511 154.345C57.448 154.345 57.6882 154.586 57.6882 154.882Z" fill="white"/>
<path d="M59.3994 154.882C59.3994 155.179 59.1592 155.419 58.8628 155.419C58.5659 155.419 58.3257 155.179 58.3257 154.882C58.3257 154.586 58.5659 154.345 58.8628 154.345C59.1592 154.345 59.3994 154.586 59.3994 154.882Z" fill="white"/>
<path d="M61.1106 154.882C61.1106 155.179 60.8704 155.419 60.574 155.419C60.2776 155.419 60.0369 155.179 60.0369 154.882C60.0369 154.586 60.2776 154.345 60.574 154.345C60.8704 154.345 61.1106 154.586 61.1106 154.882Z" fill="white"/>
<path d="M33.4197 93.088H25.9468C25.8016 93.088 25.6841 92.9705 25.6841 92.8254C25.6841 92.6798 25.8016 92.5623 25.9468 92.5623H33.4197C33.5652 92.5623 33.6827 92.6798 33.6827 92.8254C33.6827 92.9705 33.5652 93.088 33.4197 93.088Z" fill="#0095C8"/>
<path d="M33.4197 94.5585H25.9468C25.8016 94.5585 25.6841 94.441 25.6841 94.2959C25.6841 94.1503 25.8016 94.0328 25.9468 94.0328H33.4197C33.5652 94.0328 33.6827 94.1503 33.6827 94.2959C33.6827 94.441 33.5652 94.5585 33.4197 94.5585Z" fill="#0095C8"/>
<path d="M33.4197 96.1066H25.9468C25.8016 96.1066 25.6841 95.9891 25.6841 95.844C25.6841 95.6989 25.8016 95.5814 25.9468 95.5814H33.4197C33.5652 95.5814 33.6827 95.6989 33.6827 95.844C33.6827 95.9891 33.5652 96.1066 33.4197 96.1066Z" fill="#0095C8"/>
<path d="M120.748 159.883H113.275C113.13 159.883 113.012 159.766 113.012 159.62C113.012 159.475 113.13 159.358 113.275 159.358H120.748C120.893 159.358 121.011 159.475 121.011 159.62C121.011 159.766 120.893 159.883 120.748 159.883Z" fill="#05BF9E"/>
<path d="M120.748 161.354H113.275C113.13 161.354 113.012 161.236 113.012 161.091C113.012 160.946 113.13 160.828 113.275 160.828H120.748C120.893 160.828 121.011 160.946 121.011 161.091C121.011 161.236 120.893 161.354 120.748 161.354Z" fill="#05BF9E"/>
<path d="M120.748 162.902H113.275C113.13 162.902 113.012 162.784 113.012 162.639C113.012 162.494 113.13 162.376 113.275 162.376H120.748C120.893 162.376 121.011 162.494 121.011 162.639C121.011 162.784 120.893 162.902 120.748 162.902Z" fill="#05BF9E"/>
<path d="M75.7051 55.759H68.2323C68.0867 55.759 67.9692 55.6415 67.9692 55.4964C67.9692 55.3513 68.0867 55.2338 68.2323 55.2338H75.7051C75.8502 55.2338 75.9677 55.3513 75.9677 55.4964C75.9677 55.6415 75.8502 55.759 75.7051 55.759Z" fill="#F3C0C6"/>
<path d="M75.7051 57.2295H68.2323C68.0867 57.2295 67.9692 57.112 67.9692 56.9669C67.9692 56.8218 68.0867 56.7043 68.2323 56.7043H75.7051C75.8502 56.7043 75.9677 56.8218 75.9677 56.9669C75.9677 57.112 75.8502 57.2295 75.7051 57.2295Z" fill="#F3C0C6"/>
<path d="M75.7051 58.7781H68.2323C68.0867 58.7781 67.9692 58.6606 67.9692 58.5155C67.9692 58.3699 68.0867 58.2524 68.2323 58.2524H75.7051C75.8502 58.2524 75.9677 58.3699 75.9677 58.5155C75.9677 58.6606 75.8502 58.7781 75.7051 58.7781Z" fill="#F3C0C6"/>
<path d="M108.403 173C95.3805 173 85.1513 169.045 85.0457 169.003C85.0252 168.996 85.0152 168.972 85.0233 168.952C85.0309 168.932 85.0542 168.922 85.0742 168.931C85.1841 168.973 96.2202 173.237 109.954 172.902C122.627 172.592 140.259 168.187 152.285 148.967C152.295 148.948 152.32 148.943 152.339 148.954C152.358 148.966 152.363 148.99 152.352 149.009C147.033 157.509 140.185 163.85 131.997 167.855C125.447 171.059 118.03 172.784 109.953 172.981C109.432 172.994 108.915 173 108.403 173Z" fill="#100F0D"/>
<path d="M66.2914 101.94C66.2695 101.94 66.252 101.922 66.252 101.9V71.9211C66.252 71.8992 66.2695 71.8812 66.2914 71.8812C66.3133 71.8812 66.3309 71.8992 66.3309 71.9211V101.9C66.3309 101.922 66.3133 101.94 66.2914 101.94Z" fill="#100F0D"/>
<path d="M27.5261 128.834C27.5043 128.834 27.4866 128.816 27.4866 128.794V106.702C27.4866 106.68 27.5043 106.662 27.5261 106.662C27.5479 106.662 27.5656 106.68 27.5656 106.702V128.794C27.5656 128.816 27.5479 128.834 27.5261 128.834Z" fill="white"/>
<path d="M131.259 33.6984C125.737 34.2203 120.461 37.0985 118.125 40.9628C116.333 43.9229 116.291 47.3286 118 50.8105C120.119 55.1269 124.996 57.8167 129.601 57.2054C132.583 56.8095 134.225 54.7306 135.077 53.0565C136.106 51.0332 136.584 48.4452 136.386 45.9557C136.025 41.3934 134.132 37.1004 131.259 33.6984ZM138.12 74.142C138.108 74.142 138.096 74.1363 138.089 74.1263C138.075 74.1091 138.079 74.0839 138.096 74.0711C142.951 70.3703 146.964 65.5978 149.396 60.6321C152.167 54.9727 152.224 48.1597 149.544 42.8515C146.569 36.9581 140.058 33.4163 132.553 33.6194C132.163 33.6299 131.772 33.6522 131.383 33.687C134.315 37.1936 136.115 41.5285 136.465 45.9495C136.663 48.4528 136.183 51.0565 135.147 53.0922C134.287 54.7834 132.628 56.8833 129.611 57.2834C124.974 57.8995 120.063 55.1906 117.93 50.8457C116.208 47.3381 116.252 43.9062 118.057 40.9219C120.398 37.0504 125.671 34.1632 131.197 33.6246C128.09 29.9767 123.852 27.3649 119.17 26.5652C110.834 25.1433 103.53 29.2707 98.8712 32.9862C98.8541 33 98.8293 32.9976 98.8155 32.98C98.8022 32.9629 98.8051 32.9382 98.8217 32.9248C101.907 30.4643 105.116 28.6447 108.36 27.5172C112.044 26.2374 115.685 25.8897 119.184 26.4877C123.662 27.2527 127.879 29.6737 131.056 33.304C131.145 33.4063 131.233 33.5095 131.321 33.6132C131.731 33.5761 132.14 33.5519 132.551 33.5404C132.752 33.5357 132.953 33.5328 133.153 33.5328C140.434 33.5328 146.705 37.0533 149.614 42.8158C150.966 45.4923 151.654 48.5813 151.604 51.7482C151.555 54.8272 150.816 57.9113 149.466 60.6673C147.03 65.6434 143.009 70.426 138.144 74.1334C138.137 74.1391 138.128 74.142 138.12 74.142Z" fill="#100F0D"/>
</svg>
