<svg width="32" height="32" viewBox="0 0 32 32" fill="none" xmlns="http://www.w3.org/2000/svg">
<g id="neurtal">
<path id="path54" d="M16 31C24.2844 31 31 24.2842 31 16C31 7.71579 24.2844 1 16 1C7.7158 1 1 7.7158 1 16C1 24.2842 7.7158 31 16 31Z" stroke="#FCBF49" stroke-width="2"/>
<path id="path56" d="M10.8712 15.2522C9.82289 15.2522 8.97305 14.283 8.97305 13.0875C8.97305 11.8918 9.82289 10.9227 10.8712 10.9227C11.9197 10.9227 12.7696 11.8918 12.7696 13.0875C12.7696 14.283 11.9197 15.2522 10.8712 15.2522Z" fill="#FCBF49"/>
<path id="path58" d="M21.1288 15.2522C20.0804 15.2522 19.2306 14.283 19.2306 13.0875C19.2306 11.8918 20.0804 10.9227 21.1288 10.9227C22.1773 10.9227 23.0271 11.8918 23.0271 13.0875C23.0271 14.283 22.1773 15.2522 21.1288 15.2522Z" fill="#FCBF49"/>
<path id="path60" d="M8.77132 10.0562C8.56013 10.0562 8.35577 9.96997 8.23134 9.79515C8.0391 9.52658 8.18607 9.09419 8.58968 8.89967C9.35354 8.53072 10.1871 8.34226 11.0259 8.34226C11.4099 8.34226 11.7949 8.38166 12.1748 8.4614C12.6137 8.55306 12.8603 8.93736 12.7385 9.24419C12.6362 9.50386 12.3663 9.65083 12.0872 9.65083C12.0343 9.65083 11.9813 9.64553 11.9288 9.63474C11.6303 9.57223 11.3277 9.54117 11.0259 9.54117C10.3666 9.54117 9.7115 9.68928 9.11129 9.97925C9.0039 10.0304 8.88666 10.0562 8.77132 10.0562Z" fill="#FCBF49"/>
<path id="path62" d="M23.2288 10.0562C23.1134 10.0562 22.9962 10.0304 22.8888 9.97925C22.2884 9.68928 21.6334 9.54117 20.9741 9.54117C20.6724 9.54117 20.3698 9.57223 20.0711 9.63474C20.0188 9.64553 19.9656 9.65083 19.9129 9.65083C19.6336 9.65064 19.3639 9.50386 19.2616 9.24419C19.1396 8.93736 19.3864 8.55306 19.825 8.4614C20.2052 8.38166 20.59 8.34226 20.9741 8.34226C21.813 8.34226 22.6465 8.53072 23.4102 8.89967C23.814 9.09419 23.9608 9.52658 23.7688 9.79515C23.6443 9.96997 23.4398 10.0562 23.2288 10.0562Z" fill="#FCBF49"/>
<path id="path64" d="M20.5475 23.6577H11.4525C10.9606 23.6577 10.5619 23.2588 10.5619 22.767C10.5619 22.2751 10.9606 21.8762 11.4525 21.8762H20.5475C21.0393 21.8762 21.4382 22.2751 21.4382 22.767C21.4382 23.2588 21.0393 23.6577 20.5475 23.6577Z" fill="#FCBF49"/>
</g>
</svg>
