<svg width="48" height="48" viewBox="0 0 48 48" fill="none" xmlns="http://www.w3.org/2000/svg">
<path d="M48 24C48 37.2547 37.255 48 24 48C10.7453 48 0 37.2547 0 24C0 10.7453 10.7453 0 24 0C37.255 0 48 10.7453 48 24Z" fill="#FFA200"/>
<path d="M16.3068 22.8784C14.7343 22.8784 13.4596 21.4246 13.4596 19.6314C13.4596 17.8379 14.7343 16.3841 16.3068 16.3841C17.8796 16.3841 19.1544 17.8379 19.1544 19.6314C19.1544 21.4246 17.8796 22.8784 16.3068 22.8784Z" fill="white"/>
<path d="M31.6931 22.8784C30.1206 22.8784 28.8459 21.4246 28.8459 19.6314C28.8459 17.8379 30.1206 16.3841 31.6931 16.3841C33.2659 16.3841 34.5407 17.8379 34.5407 19.6314C34.5407 21.4246 33.2659 22.8784 31.6931 22.8784Z" fill="white"/>
<path d="M13.157 15.0844C12.8402 15.0844 12.5337 14.9551 12.347 14.6929C12.0586 14.29 12.2791 13.6414 12.8845 13.3496C14.0303 12.7962 15.2806 12.5135 16.5389 12.5135C17.1148 12.5135 17.6924 12.5726 18.2623 12.6922C18.9205 12.8297 19.2904 13.4062 19.1078 13.8664C18.9544 14.2559 18.5495 14.4764 18.1307 14.4764C18.0515 14.4764 17.9719 14.4684 17.8932 14.4522C17.4455 14.3585 16.9915 14.3119 16.5389 14.3119C15.55 14.3119 14.5673 14.534 13.6669 14.969C13.5059 15.0457 13.33 15.0844 13.157 15.0844Z" fill="white"/>
<path d="M34.8432 15.0844C34.6702 15.0844 34.4943 15.0457 34.3333 14.969C33.4327 14.534 32.4502 14.3119 31.4613 14.3119C31.0087 14.3119 30.5547 14.3585 30.1067 14.4522C30.0283 14.4684 29.9484 14.4764 29.8695 14.4764C29.4504 14.4761 29.0458 14.2559 28.8924 13.8664C28.7095 13.4062 29.0797 12.8297 29.7376 12.6922C30.3078 12.5726 30.8851 12.5135 31.4613 12.5135C32.7196 12.5135 33.9699 12.7962 35.1154 13.3496C35.7211 13.6414 35.9413 14.29 35.6532 14.6929C35.4665 14.9551 35.1597 15.0844 34.8432 15.0844Z" fill="white"/>
<path d="M30.8212 35.4865H17.1787C16.4409 35.4865 15.8428 34.8882 15.8428 34.1504C15.8428 33.4126 16.4409 32.8143 17.1787 32.8143H30.8212C31.559 32.8143 32.1573 33.4126 32.1573 34.1504C32.1573 34.8882 31.559 35.4865 30.8212 35.4865Z" fill="white"/>
</svg>
