<svg width="48" height="48" viewBox="0 0 48 48" fill="none" xmlns="http://www.w3.org/2000/svg">
<path d="M24.0002 47.0003C36.7029 47.0003 47 36.7027 47 24.0002C47 11.2976 36.7029 1.00003 24.0002 1.00003C11.2976 1.00003 1 11.2976 1 24.0002C1 36.7027 11.2976 47.0003 24.0002 47.0003Z" stroke="#86CC6E" stroke-width="2"/>
<path d="M24.0001 36.528C21.4372 36.528 18.8744 35.916 16.5172 34.6921C15.741 34.2901 15.4367 33.3977 15.8032 32.7926C16.0447 32.3931 16.4717 32.1869 16.9189 32.1869C17.1518 32.1869 17.3902 32.2428 17.6106 32.3565C19.6235 33.4017 21.812 33.9242 24.0001 33.9242C26.1886 33.9242 28.377 33.4017 30.3885 32.3565C30.6101 32.2428 30.8487 32.1869 31.0817 32.1869C31.5277 32.1869 31.9567 32.3931 32.1982 32.7926C32.5647 33.3977 32.2607 34.2901 31.4823 34.6921C29.1271 35.916 26.563 36.528 24.0001 36.528Z" fill="#86CC6E"/>
<path d="M16.3069 22.1862C14.7344 22.1862 13.4596 20.7324 13.4596 18.9391C13.4596 17.1456 14.7344 15.6919 16.3069 15.6919C17.8797 15.6919 19.1545 17.1456 19.1545 18.9391C19.1545 20.7324 17.8797 22.1862 16.3069 22.1862Z" fill="#86CC6E"/>
<path d="M31.6925 22.1862C30.1215 22.1862 28.8458 20.7324 28.8458 18.9391C28.8458 17.1456 30.1215 15.6919 31.6925 15.6919C33.2665 15.6919 34.5421 17.1456 34.5421 18.9391C34.5421 20.7324 33.2665 22.1862 31.6925 22.1862Z" fill="#86CC6E"/>
<path d="M12.0022 14.9117C11.7693 14.9117 11.5417 14.8361 11.3641 14.6742C10.9973 14.3412 11.0763 13.6608 11.6067 13.2477C13.0696 12.107 14.8705 11.4826 16.7254 11.4723C16.7283 11.4723 16.7311 11.4723 16.7339 11.4723C17.4019 11.4723 17.8806 11.9556 17.7993 12.442C17.7184 12.9332 17.2399 13.2656 16.7354 13.2707C15.2776 13.2787 13.862 13.7696 12.7125 14.6659C12.5062 14.8253 12.2511 14.9117 12.0022 14.9117Z" fill="#86CC6E"/>
<path d="M35.9996 14.9117C35.7495 14.9117 35.4939 14.8253 35.2893 14.6659C34.1387 13.7696 32.7238 13.2787 31.2664 13.2707C30.7607 13.2656 30.2834 12.9332 30.201 12.442C30.1186 11.9556 30.5987 11.4723 31.2664 11.4723C31.2692 11.4723 31.2721 11.4723 31.2749 11.4723C33.1301 11.4826 34.9313 12.107 36.3944 13.2477C36.9229 13.6608 37.0024 14.3412 36.6359 14.6742C36.4598 14.8361 36.2325 14.9117 35.9996 14.9117Z" fill="#86CC6E"/>
</svg>
