<svg width="33" height="32" viewBox="0 0 33 32" fill="none" xmlns="http://www.w3.org/2000/svg">
<g id="satisfied">
<path id="path66" d="M16.5001 31C24.7845 31 31.5 24.2842 31.5 16C31.5 7.71578 24.7845 1 16.5001 1C8.21584 1 1.5 7.7158 1.5 16C1.5 24.2842 8.21584 31 16.5001 31Z" fill="#86CC6E" stroke="#86CC6E" stroke-width="2"/>
<path id="path68" d="M16.5001 24.3518C14.7915 24.3518 13.0829 23.9438 11.5114 23.1279C10.994 22.8599 10.7911 22.265 11.0354 21.8616C11.1964 21.5953 11.4811 21.4578 11.7792 21.4578C11.9345 21.4578 12.0934 21.4951 12.2404 21.5708C13.5823 22.2676 15.0413 22.616 16.5001 22.616C17.959 22.616 19.418 22.2676 20.759 21.5708C20.9067 21.4951 21.0658 21.4578 21.2211 21.4578C21.5184 21.4578 21.8044 21.5953 21.9654 21.8616C22.2098 22.265 22.0071 22.8599 21.4882 23.1279C19.918 23.9438 18.2087 24.3518 16.5001 24.3518Z" fill="white"/>
<path id="path70" d="M11.3713 14.7908C10.3229 14.7908 9.47308 13.8216 9.47308 12.6261C9.47308 11.4304 10.3229 10.4613 11.3713 10.4613C12.4198 10.4613 13.2696 11.4304 13.2696 12.6261C13.2696 13.8216 12.4198 14.7908 11.3713 14.7908Z" fill="white"/>
<path id="path72" d="M21.6283 14.7908C20.5809 14.7908 19.7305 13.8216 19.7305 12.6261C19.7305 11.4304 20.5809 10.4613 21.6283 10.4613C22.6776 10.4613 23.528 11.4304 23.528 12.6261C23.528 13.8216 22.6776 14.7908 21.6283 14.7908Z" fill="white"/>
<path id="path74" d="M8.50146 9.94116C8.34615 9.94116 8.19442 9.89078 8.07605 9.78283C7.83153 9.56085 7.88418 9.10723 8.2378 8.83184C9.21303 8.07139 10.4137 7.6551 11.6503 7.64828C11.6522 7.64828 11.654 7.64828 11.6559 7.64828C12.1012 7.64828 12.4204 7.97045 12.3662 8.2947C12.3122 8.62217 11.9933 8.84377 11.6569 8.84718C10.6851 8.85248 9.74128 9.17977 8.97497 9.77733C8.83746 9.88359 8.66738 9.94116 8.50146 9.94116Z" fill="white"/>
<path id="path76" d="M24.4997 9.94116C24.333 9.94116 24.1626 9.88359 24.0262 9.77733C23.2591 9.17977 22.3159 8.85248 21.3443 8.84718C21.0071 8.84377 20.6889 8.62217 20.634 8.2947C20.5791 7.97045 20.8992 7.64828 21.3443 7.64828C21.3462 7.64828 21.348 7.64828 21.3499 7.64828C22.5867 7.6551 23.7875 8.07139 24.763 8.83184C25.1153 9.10723 25.1683 9.56085 24.924 9.78283C24.8065 9.89078 24.655 9.94116 24.4997 9.94116Z" fill="white"/>
</g>
</svg>
