<svg width="48" height="48" viewBox="0 0 48 48" fill="none" xmlns="http://www.w3.org/2000/svg">
<path d="M23.9986 47.0012C36.7027 47.0012 47 36.7033 47 24.0006C47 11.2978 36.7027 1.00002 23.9986 1.00002C11.2973 1.00002 1 11.2978 1 24.0006C1 36.7034 11.2973 47.0012 23.9986 47.0012Z" stroke="#21AB37" stroke-width="2"/>
<path d="M16.3078 21.4893C14.7338 21.4893 13.4582 20.0355 13.4582 18.2423C13.4582 16.449 14.7338 14.9952 16.3078 14.9952C17.8789 14.9952 19.1545 16.449 19.1545 18.2423C19.1545 20.0355 17.8789 21.4893 16.3078 21.4893Z" fill="#21AB37"/>
<path d="M31.6923 21.4893C30.1212 21.4893 28.8455 20.0355 28.8455 18.2423C28.8455 16.449 30.1212 14.9952 31.6923 14.9952C33.2662 14.9952 34.5419 16.449 34.5419 18.2423C34.5419 20.0355 33.2662 21.4893 31.6923 21.4893Z" fill="#21AB37"/>
<path d="M12.0007 14.2151C11.7678 14.2151 11.5405 14.1395 11.3644 13.9773C10.9979 13.6443 11.0746 12.9639 11.6058 12.5508C13.069 11.4104 14.8702 10.7856 16.7254 10.7754C16.7283 10.7754 16.7311 10.7754 16.734 10.7754C17.4016 10.7754 17.8789 11.2589 17.7994 11.7453C17.717 12.2363 17.2397 12.5687 16.734 12.5738C15.2765 12.582 13.8616 13.0729 12.711 13.9693C12.5064 14.1287 12.2508 14.2151 12.0007 14.2151Z" fill="#21AB37"/>
<path d="M35.9993 14.2151C35.7493 14.2151 35.4936 14.1287 35.2862 13.9693C34.1384 13.0729 32.7235 12.582 31.2661 12.5738C30.7604 12.5687 30.2831 12.2363 30.2007 11.7453C30.1183 11.2589 30.5984 10.7754 31.2661 10.7754C31.2689 10.7754 31.2718 10.7754 31.2746 10.7754C33.1298 10.7856 34.9311 11.4104 36.3942 12.5508C36.9227 12.9639 37.0022 13.6443 36.6357 13.9773C36.4596 14.1395 36.2323 14.2151 35.9993 14.2151Z" fill="#21AB37"/>
<path d="M24.1719 37.2255C24.0611 37.2255 23.9986 37.2227 23.9986 37.2227C23.9986 37.2227 23.9389 37.2255 23.831 37.2255C22.6661 37.2255 15.8617 36.8991 15.0378 29.3C15.0123 29.0634 15.2026 28.8813 15.41 28.8813C15.4782 28.8813 15.5492 28.9014 15.6146 28.9466C17.2255 30.0288 20.1944 31.099 23.7173 31.099C23.8111 31.099 23.9048 31.0982 23.9986 31.0967C24.0923 31.0982 24.1861 31.099 24.2799 31.099C27.8085 31.099 30.7746 30.0288 32.3854 28.9466L32.448 28.9128C32.4963 28.8912 32.5446 28.8813 32.5957 28.8813C32.8003 28.8813 32.9877 29.0617 32.9622 29.3C32.8656 30.1879 32.6866 30.9788 32.448 31.6814C30.6297 36.9684 25.2089 37.2255 24.1719 37.2255Z" fill="#21AB37"/>
</svg>
