<svg width="32" height="32" viewBox="0 0 32 32" fill="none" xmlns="http://www.w3.org/2000/svg">
<g id="very_satisfied">
<path id="path102" d="M15.999 31C24.2844 31 31 24.2842 31 16C31 7.71583 24.2844 1 15.999 1C7.71562 1 1 7.71575 1 16C1 24.2843 7.71562 31 15.999 31Z" fill="#0CC456" stroke="#0CC456" stroke-width="2"/>
<path id="path104" d="M10.8719 14.3259C9.82255 14.3259 8.97211 13.3568 8.97211 12.1613C8.97211 10.9658 9.82255 9.99661 10.8719 9.99661C11.9193 9.99661 12.7697 10.9658 12.7697 12.1613C12.7697 13.3568 11.9193 14.3259 10.8719 14.3259Z" fill="white"/>
<path id="path106" d="M21.1282 14.3259C20.0808 14.3259 19.2303 13.3568 19.2303 12.1613C19.2303 10.9658 20.0808 9.99661 21.1282 9.99661C22.1775 9.99661 23.0279 10.9658 23.0279 12.1613C23.0279 13.3568 22.1775 14.3259 21.1282 14.3259Z" fill="white"/>
<path id="path108" d="M8.00049 9.47656C7.84518 9.47656 7.69367 9.42619 7.57623 9.31804C7.3319 9.09606 7.38304 8.64245 7.73723 8.36706C8.71266 7.60681 9.91348 7.19031 11.1503 7.18349C11.1522 7.18349 11.1541 7.18349 11.156 7.18349C11.6011 7.18349 11.9193 7.50585 11.8663 7.83011C11.8113 8.15739 11.4931 8.37899 11.156 8.38239C10.1843 8.38789 9.24109 8.71517 8.474 9.31273C8.33763 9.41899 8.16717 9.47656 8.00049 9.47656Z" fill="white"/>
<path id="path110" d="M23.9995 9.47656C23.8328 9.47656 23.6624 9.41899 23.5241 9.31273C22.7589 8.71517 21.8157 8.38789 20.844 8.38239C20.5069 8.37899 20.1887 8.15739 20.1338 7.83011C20.0788 7.50585 20.3989 7.18349 20.844 7.18349C20.8459 7.18349 20.8478 7.18349 20.8497 7.18349C22.0865 7.19031 23.2874 7.60681 24.2628 8.36706C24.6151 8.64245 24.6681 9.09606 24.4238 9.31804C24.3064 9.42619 24.1548 9.47656 23.9995 9.47656Z" fill="white"/>
<path id="path112" d="M16.1146 24.8164C16.0407 24.8164 15.9991 24.8145 15.9991 24.8145C15.9991 24.8145 15.9593 24.8164 15.8873 24.8164C15.1108 24.8164 10.5745 24.5988 10.0252 19.5329C10.0082 19.3751 10.1351 19.2537 10.2733 19.2537C10.3188 19.2537 10.3662 19.2671 10.4097 19.2973C11.4836 20.0187 13.4629 20.7322 15.8116 20.7322C15.8741 20.7322 15.9365 20.7316 15.9991 20.7307C16.0616 20.7316 16.1241 20.7322 16.1866 20.7322C18.539 20.7322 20.5164 20.0187 21.5903 19.2973L21.632 19.2747C21.6642 19.2603 21.6964 19.2537 21.7305 19.2537C21.8668 19.2537 21.9918 19.374 21.9748 19.5329C21.9104 20.1248 21.7911 20.6521 21.632 21.1204C20.4198 24.645 16.8059 24.8164 16.1146 24.8164Z" fill="white"/>
</g>
</svg>
