<svg width="48" height="48" viewBox="0 0 48 48" fill="none" xmlns="http://www.w3.org/2000/svg">
<path d="M48 24C48 37.2547 37.2547 48 24 48C10.745 48 0 37.2547 0 24C0 10.7453 10.745 0 24 0C37.2547 0 48 10.7453 48 24Z" fill="#F22F46"/>
<path d="M16.3068 22.1886C14.734 22.1886 13.4593 20.7349 13.4593 18.9416C13.4593 17.1481 14.734 15.6943 16.3068 15.6943C17.8793 15.6943 19.1543 17.1481 19.1543 18.9416C19.1543 20.7349 17.8793 22.1886 16.3068 22.1886Z" fill="white"/>
<path d="M31.6932 22.1886C30.1204 22.1886 28.8456 20.7349 28.8456 18.9416C28.8456 17.1481 30.1204 15.6943 31.6932 15.6943C33.2657 15.6943 34.5407 17.1481 34.5407 18.9416C34.5407 20.7349 33.2657 22.1886 31.6932 22.1886Z" fill="white"/>
<path d="M18.8174 14.7147C18.597 14.7147 18.372 14.6497 18.1793 14.525C17.1023 13.8198 15.8443 13.4471 14.5639 13.4471C14.3945 13.4471 14.2249 13.4536 14.055 13.4667C14.0269 13.4687 13.9985 13.4698 13.9701 13.4698C13.4962 13.4698 13.0411 13.1843 12.9266 12.7289C12.8047 12.2487 13.2462 11.7251 13.9164 11.6737C14.1323 11.6569 14.3485 11.6487 14.5639 11.6487C16.1932 11.6487 17.7935 12.1229 19.1643 13.0201C19.7271 13.3877 19.8621 14.0593 19.524 14.4215C19.339 14.6207 19.0819 14.7147 18.8174 14.7147Z" fill="white"/>
<path d="M29.1826 14.7147C28.9181 14.7147 28.6607 14.6207 28.476 14.4215C28.1379 14.0593 28.2729 13.3877 28.8354 13.0201C30.2062 12.1229 31.8068 11.6487 33.4361 11.6487C33.6515 11.6487 33.8674 11.6569 34.0833 11.6737C34.7538 11.7251 35.195 12.2487 35.0734 12.7289C34.9589 13.1843 34.5035 13.4698 34.0296 13.4698C34.0012 13.4698 33.9731 13.4687 33.9447 13.4667C33.7748 13.4536 33.6055 13.4471 33.4359 13.4471C32.1557 13.4471 30.8974 13.8198 29.8204 14.525C29.6278 14.6497 29.4028 14.715 29.1826 14.7147Z" fill="white"/>
<path d="M32.5913 36.3513C32.5225 36.3513 32.4518 36.3312 32.3864 36.286C30.7758 35.2038 27.807 34.1336 24.2822 34.1336C24.1887 34.1336 24.0955 34.1345 24.0012 34.1359C23.9071 34.1345 23.8134 34.1336 23.7199 34.1336C20.1914 34.1336 17.2271 35.2038 15.6162 36.286L15.5531 36.3195C15.5049 36.3414 15.4551 36.3513 15.4066 36.3513C15.2 36.3513 15.0125 36.1709 15.0398 35.9325C15.1364 35.0447 15.3134 34.2538 15.5531 33.5512C17.3722 28.2644 22.7915 28.0073 23.8287 28.0073C23.9404 28.0073 24.0012 28.0101 24.0012 28.0101C24.0012 28.0101 24.0611 28.0073 24.1705 28.0073C25.335 28.0073 32.1398 28.3337 32.9629 35.9325C32.9881 36.1692 32.7981 36.3513 32.5913 36.3513Z" fill="white"/>
</svg>
