<svg width="32" height="32" viewBox="0 0 32 32" fill="none" xmlns="http://www.w3.org/2000/svg">
<g id="very_dissatisfied">
<path id="path78" d="M16 31C24.2842 31 31 24.2842 31 16C31 7.7158 24.2842 1 16 1C7.71562 1 1 7.71579 1 16C1 24.2842 7.71562 31 16 31Z" fill="#F22F46" stroke="#F22F46" stroke-width="2"/>
<path id="path80" d="M10.8712 14.7925C9.82268 14.7925 8.97284 13.8233 8.97284 12.6278C8.97284 11.4321 9.82268 10.463 10.8712 10.463C11.9195 10.463 12.7696 11.4321 12.7696 12.6278C12.7696 13.8233 11.9195 14.7925 10.8712 14.7925Z" fill="white"/>
<path id="path82" d="M21.1288 14.7925C20.0803 14.7925 19.2304 13.8233 19.2304 12.6278C19.2304 11.4321 20.0803 10.463 21.1288 10.463C22.1771 10.463 23.0272 11.4321 23.0272 12.6278C23.0272 13.8233 22.1771 14.7925 21.1288 14.7925Z" fill="white"/>
<path id="path84" d="M12.545 9.80981C12.398 9.80981 12.248 9.76645 12.1196 9.6833C11.4015 9.21321 10.5629 8.96471 9.70925 8.96471C9.59636 8.96471 9.48329 8.96907 9.37003 8.97778C9.35128 8.97911 9.33234 8.97986 9.3134 8.97986C8.99748 8.97986 8.69406 8.78951 8.61773 8.48591C8.53648 8.16582 8.83081 7.81675 9.2776 7.78247C9.42155 7.77129 9.56568 7.7658 9.70925 7.7658C10.7955 7.7658 11.8624 8.08191 12.7762 8.68004C13.1514 8.92513 13.2414 9.37287 13.016 9.61436C12.8927 9.74713 12.7213 9.80981 12.545 9.80981Z" fill="white"/>
<path id="path86" d="M19.4551 9.80981C19.2787 9.80981 19.1071 9.74713 18.984 9.61436C18.7586 9.37287 18.8486 8.92513 19.2236 8.68004C20.1375 8.08191 21.2046 7.7658 22.2908 7.7658C22.4343 7.7658 22.5783 7.77129 22.7222 7.78247C23.1692 7.81675 23.4633 8.16582 23.3823 8.48591C23.306 8.78951 23.0023 8.97986 22.6864 8.97986C22.6675 8.97986 22.6487 8.97911 22.6298 8.97778C22.5165 8.96907 22.4036 8.96471 22.2906 8.96471C21.4371 8.96471 20.5983 9.21321 19.8803 9.6833C19.7519 9.76645 19.6018 9.81 19.4551 9.80981Z" fill="white"/>
<path id="path88" d="M21.7275 24.2341C21.6817 24.2341 21.6345 24.2207 21.5909 24.1906C20.5172 23.4691 18.538 22.7557 16.1881 22.7557C16.1258 22.7557 16.0637 22.7562 16.0008 22.7572C15.9381 22.7562 15.8756 22.7557 15.8133 22.7557C13.4609 22.7557 11.4847 23.4691 10.4108 24.1906L10.3688 24.2129C10.3366 24.2275 10.3034 24.2341 10.271 24.2341C10.1333 24.2341 10.0083 24.1139 10.0265 23.9549C10.0909 23.3631 10.2089 22.8358 10.3688 22.3674C11.5815 18.8428 15.1943 18.6714 15.8858 18.6714C15.9602 18.6714 16.0008 18.6733 16.0008 18.6733C16.0008 18.6733 16.0407 18.6714 16.1137 18.6714C16.89 18.6714 21.4265 18.8891 21.9752 23.9549C21.9921 24.1127 21.8654 24.2341 21.7275 24.2341Z" fill="white"/>
</g>
</svg>
